<svg width="24" height="24" viewBox="0 0 24 24" fill="none" xmlns="http://www.w3.org/2000/svg">
<path d="M19.0694 6.26993C21.1594 10.4699 18.9594 14.9299 15.7294 16.8799V18.0399C15.7294 18.3299 15.8394 18.9999 14.7694 18.9999H9.25938C8.15938 18.9999 8.29938 18.5699 8.29938 18.0399V16.8799C5.99938 15.4899 4.10938 12.7799 4.10938 9.89993C4.10938 4.94993 8.65938 1.06993 13.7994 2.18993C14.5494 2.35993 15.2794 2.62993 15.9394 2.99993" stroke="white" stroke-width="1.5" stroke-linecap="round" stroke-linejoin="round"/>
<path d="M12.0001 7.88989L10.9301 9.74989C10.6901 10.1599 10.8901 10.4999 11.3601 10.4999H12.6301C13.1101 10.4999 13.3001 10.8399 13.0601 11.2499L12.0001 13.1099" stroke="white" stroke-width="1.5" stroke-linecap="round" stroke-linejoin="round"/>
<path d="M8.5 22C10.79 21.35 13.21 21.35 15.5 22" stroke="white" stroke-width="1.5" stroke-linecap="round" stroke-linejoin="round"/>
</svg>
